<svg xmlns="http://www.w3.org/2000/svg" viewBox="0 0 112 66" width="448" height="264">
<title>Clatty Works</title>
<g shape-rendering="crispEdges">
<rect x="40" y="12" width="7" height="1" fill="#2A2E31"/>
<rect x="40" y="13" width="1" height="1" fill="#2A2E31"/>
<rect x="41" y="13" width="5" height="1" fill="#0A5C5C"/>
<rect x="46" y="13" width="1" height="1" fill="#2A2E31"/>
<rect x="40" y="14" width="1" height="1" fill="#2A2E31"/>
<rect x="41" y="14" width="5" height="1" fill="#0A5C5C"/>
<rect x="46" y="14" width="1" height="1" fill="#2A2E31"/>
<rect x="40" y="15" width="1" height="1" fill="#2A2E31"/>
<rect x="41" y="15" width="5" height="1" fill="#F2F4F5"/>
<rect x="46" y="15" width="1" height="1" fill="#2A2E31"/>
<rect x="40" y="16" width="1" height="1" fill="#2A2E31"/>
<rect x="41" y="16" width="1" height="1" fill="#F2F4F5"/>
<rect x="42" y="16" width="3" height="1" fill="#D5D9DC"/>
<rect x="45" y="16" width="1" height="1" fill="#8E959A"/>
<rect x="46" y="16" width="1" height="1" fill="#2A2E31"/>
<rect x="40" y="17" width="1" height="1" fill="#2A2E31"/>
<rect x="41" y="17" width="1" height="1" fill="#F2F4F5"/>
<rect x="42" y="17" width="3" height="1" fill="#FFFFFF"/>
<rect x="45" y="17" width="1" height="1" fill="#8E959A"/>
<rect x="46" y="17" width="1" height="1" fill="#2A2E31"/>
<rect x="40" y="18" width="1" height="1" fill="#2A2E31"/>
<rect x="41" y="18" width="1" height="1" fill="#F2F4F5"/>
<rect x="42" y="18" width="3" height="1" fill="#FFFFFF"/>
<rect x="45" y="18" width="1" height="1" fill="#8E959A"/>
<rect x="46" y="18" width="1" height="1" fill="#2A2E31"/>
<rect x="55" y="18" width="17" height="1" fill="#2A2E31"/>
<rect x="40" y="19" width="1" height="1" fill="#2A2E31"/>
<rect x="41" y="19" width="1" height="1" fill="#F2F4F5"/>
<rect x="42" y="19" width="3" height="1" fill="#FFFFFF"/>
<rect x="45" y="19" width="1" height="1" fill="#8E959A"/>
<rect x="46" y="19" width="1" height="1" fill="#2A2E31"/>
<rect x="55" y="19" width="1" height="1" fill="#2A2E31"/>
<rect x="56" y="19" width="11" height="1" fill="#0A5C5C"/>
<rect x="67" y="19" width="1" height="1" fill="#D5D9DC"/>
<rect x="68" y="19" width="1" height="1" fill="#0A5C5C"/>
<rect x="69" y="19" width="1" height="1" fill="#D5D9DC"/>
<rect x="70" y="19" width="1" height="1" fill="#0A5C5C"/>
<rect x="71" y="19" width="1" height="1" fill="#2A2E31"/>
<rect x="40" y="20" width="1" height="1" fill="#2A2E31"/>
<rect x="41" y="20" width="1" height="1" fill="#F2F4F5"/>
<rect x="42" y="20" width="3" height="1" fill="#FFFFFF"/>
<rect x="45" y="20" width="1" height="1" fill="#8E959A"/>
<rect x="46" y="20" width="1" height="1" fill="#2A2E31"/>
<rect x="55" y="20" width="1" height="1" fill="#2A2E31"/>
<rect x="56" y="20" width="15" height="1" fill="#0A5C5C"/>
<rect x="71" y="20" width="1" height="1" fill="#2A2E31"/>
<rect x="40" y="21" width="1" height="1" fill="#2A2E31"/>
<rect x="41" y="21" width="1" height="1" fill="#F2F4F5"/>
<rect x="42" y="21" width="3" height="1" fill="#FFFFFF"/>
<rect x="45" y="21" width="1" height="1" fill="#8E959A"/>
<rect x="46" y="21" width="1" height="1" fill="#2A2E31"/>
<rect x="49" y="21" width="1" height="1" fill="#2A2E31"/>
<rect x="55" y="21" width="1" height="1" fill="#2A2E31"/>
<rect x="56" y="21" width="15" height="1" fill="#F2F4F5"/>
<rect x="71" y="21" width="1" height="1" fill="#2A2E31"/>
<rect x="40" y="22" width="1" height="1" fill="#2A2E31"/>
<rect x="41" y="22" width="1" height="1" fill="#F2F4F5"/>
<rect x="42" y="22" width="3" height="1" fill="#FFFFFF"/>
<rect x="45" y="22" width="1" height="1" fill="#8E959A"/>
<rect x="46" y="22" width="1" height="1" fill="#2A2E31"/>
<rect x="48" y="22" width="1" height="1" fill="#2A2E31"/>
<rect x="49" y="22" width="1" height="1" fill="#0F8A8A"/>
<rect x="50" y="22" width="1" height="1" fill="#2A2E31"/>
<rect x="55" y="22" width="1" height="1" fill="#2A2E31"/>
<rect x="56" y="22" width="1" height="1" fill="#F2F4F5"/>
<rect x="57" y="22" width="13" height="1" fill="#D5D9DC"/>
<rect x="70" y="22" width="1" height="1" fill="#8E959A"/>
<rect x="71" y="22" width="1" height="1" fill="#2A2E31"/>
<rect x="40" y="23" width="1" height="1" fill="#2A2E31"/>
<rect x="41" y="23" width="1" height="1" fill="#F2F4F5"/>
<rect x="42" y="23" width="3" height="1" fill="#FFFFFF"/>
<rect x="45" y="23" width="1" height="1" fill="#8E959A"/>
<rect x="46" y="23" width="3" height="1" fill="#2A2E31"/>
<rect x="49" y="23" width="2" height="1" fill="#0F8A8A"/>
<rect x="51" y="23" width="1" height="1" fill="#2A2E31"/>
<rect x="55" y="23" width="1" height="1" fill="#2A2E31"/>
<rect x="56" y="23" width="1" height="1" fill="#F2F4F5"/>
<rect x="57" y="23" width="13" height="1" fill="#FFFFFF"/>
<rect x="70" y="23" width="1" height="1" fill="#8E959A"/>
<rect x="71" y="23" width="1" height="1" fill="#2A2E31"/>
<rect x="40" y="24" width="1" height="1" fill="#2A2E31"/>
<rect x="41" y="24" width="1" height="1" fill="#F2F4F5"/>
<rect x="42" y="24" width="3" height="1" fill="#FFFFFF"/>
<rect x="45" y="24" width="1" height="1" fill="#8E959A"/>
<rect x="46" y="24" width="1" height="1" fill="#2A2E31"/>
<rect x="47" y="24" width="5" height="1" fill="#0F8A8A"/>
<rect x="52" y="24" width="1" height="1" fill="#2A2E31"/>
<rect x="55" y="24" width="1" height="1" fill="#2A2E31"/>
<rect x="56" y="24" width="1" height="1" fill="#F2F4F5"/>
<rect x="57" y="24" width="13" height="1" fill="#FFFFFF"/>
<rect x="70" y="24" width="1" height="1" fill="#8E959A"/>
<rect x="71" y="24" width="1" height="1" fill="#2A2E31"/>
<rect x="40" y="25" width="1" height="1" fill="#2A2E31"/>
<rect x="41" y="25" width="1" height="1" fill="#F2F4F5"/>
<rect x="42" y="25" width="3" height="1" fill="#FFFFFF"/>
<rect x="45" y="25" width="1" height="1" fill="#8E959A"/>
<rect x="46" y="25" width="1" height="1" fill="#2A2E31"/>
<rect x="47" y="25" width="6" height="1" fill="#0F8A8A"/>
<rect x="53" y="25" width="1" height="1" fill="#2A2E31"/>
<rect x="55" y="25" width="1" height="1" fill="#2A2E31"/>
<rect x="56" y="25" width="1" height="1" fill="#F2F4F5"/>
<rect x="57" y="25" width="13" height="1" fill="#FFFFFF"/>
<rect x="70" y="25" width="1" height="1" fill="#8E959A"/>
<rect x="71" y="25" width="1" height="1" fill="#2A2E31"/>
<rect x="40" y="26" width="1" height="1" fill="#2A2E31"/>
<rect x="41" y="26" width="1" height="1" fill="#F2F4F5"/>
<rect x="42" y="26" width="3" height="1" fill="#FFFFFF"/>
<rect x="45" y="26" width="1" height="1" fill="#8E959A"/>
<rect x="46" y="26" width="1" height="1" fill="#2A2E31"/>
<rect x="47" y="26" width="5" height="1" fill="#0F8A8A"/>
<rect x="52" y="26" width="1" height="1" fill="#2A2E31"/>
<rect x="55" y="26" width="1" height="1" fill="#2A2E31"/>
<rect x="56" y="26" width="1" height="1" fill="#F2F4F5"/>
<rect x="57" y="26" width="13" height="1" fill="#FFFFFF"/>
<rect x="70" y="26" width="1" height="1" fill="#8E959A"/>
<rect x="71" y="26" width="1" height="1" fill="#2A2E31"/>
<rect x="40" y="27" width="1" height="1" fill="#2A2E31"/>
<rect x="41" y="27" width="1" height="1" fill="#F2F4F5"/>
<rect x="42" y="27" width="3" height="1" fill="#FFFFFF"/>
<rect x="45" y="27" width="1" height="1" fill="#8E959A"/>
<rect x="46" y="27" width="3" height="1" fill="#2A2E31"/>
<rect x="49" y="27" width="2" height="1" fill="#0F8A8A"/>
<rect x="51" y="27" width="1" height="1" fill="#2A2E31"/>
<rect x="55" y="27" width="1" height="1" fill="#2A2E31"/>
<rect x="56" y="27" width="1" height="1" fill="#F2F4F5"/>
<rect x="57" y="27" width="13" height="1" fill="#FFFFFF"/>
<rect x="70" y="27" width="1" height="1" fill="#8E959A"/>
<rect x="71" y="27" width="1" height="1" fill="#2A2E31"/>
<rect x="40" y="28" width="1" height="1" fill="#2A2E31"/>
<rect x="41" y="28" width="1" height="1" fill="#F2F4F5"/>
<rect x="42" y="28" width="3" height="1" fill="#FFFFFF"/>
<rect x="45" y="28" width="1" height="1" fill="#8E959A"/>
<rect x="46" y="28" width="1" height="1" fill="#2A2E31"/>
<rect x="48" y="28" width="1" height="1" fill="#2A2E31"/>
<rect x="49" y="28" width="1" height="1" fill="#0F8A8A"/>
<rect x="50" y="28" width="1" height="1" fill="#2A2E31"/>
<rect x="55" y="28" width="1" height="1" fill="#2A2E31"/>
<rect x="56" y="28" width="1" height="1" fill="#F2F4F5"/>
<rect x="57" y="28" width="13" height="1" fill="#FFFFFF"/>
<rect x="70" y="28" width="1" height="1" fill="#8E959A"/>
<rect x="71" y="28" width="1" height="1" fill="#2A2E31"/>
<rect x="40" y="29" width="1" height="1" fill="#2A2E31"/>
<rect x="41" y="29" width="1" height="1" fill="#F2F4F5"/>
<rect x="42" y="29" width="3" height="1" fill="#FFFFFF"/>
<rect x="45" y="29" width="1" height="1" fill="#8E959A"/>
<rect x="46" y="29" width="1" height="1" fill="#2A2E31"/>
<rect x="49" y="29" width="1" height="1" fill="#2A2E31"/>
<rect x="55" y="29" width="1" height="1" fill="#2A2E31"/>
<rect x="56" y="29" width="1" height="1" fill="#F2F4F5"/>
<rect x="57" y="29" width="13" height="1" fill="#D5D9DC"/>
<rect x="70" y="29" width="1" height="1" fill="#8E959A"/>
<rect x="71" y="29" width="1" height="1" fill="#2A2E31"/>
<rect x="40" y="30" width="1" height="1" fill="#2A2E31"/>
<rect x="41" y="30" width="1" height="1" fill="#F2F4F5"/>
<rect x="42" y="30" width="3" height="1" fill="#FFFFFF"/>
<rect x="45" y="30" width="1" height="1" fill="#8E959A"/>
<rect x="46" y="30" width="1" height="1" fill="#2A2E31"/>
<rect x="55" y="30" width="1" height="1" fill="#2A2E31"/>
<rect x="56" y="30" width="15" height="1" fill="#8E959A"/>
<rect x="71" y="30" width="1" height="1" fill="#2A2E31"/>
<rect x="40" y="31" width="1" height="1" fill="#2A2E31"/>
<rect x="41" y="31" width="1" height="1" fill="#F2F4F5"/>
<rect x="42" y="31" width="3" height="1" fill="#FFFFFF"/>
<rect x="45" y="31" width="1" height="1" fill="#8E959A"/>
<rect x="46" y="31" width="1" height="1" fill="#2A2E31"/>
<rect x="55" y="31" width="17" height="1" fill="#2A2E31"/>
<rect x="40" y="32" width="1" height="1" fill="#2A2E31"/>
<rect x="41" y="32" width="1" height="1" fill="#F2F4F5"/>
<rect x="42" y="32" width="3" height="1" fill="#D5D9DC"/>
<rect x="45" y="32" width="1" height="1" fill="#8E959A"/>
<rect x="46" y="32" width="1" height="1" fill="#2A2E31"/>
<rect x="40" y="33" width="1" height="1" fill="#2A2E31"/>
<rect x="41" y="33" width="1" height="1" fill="#F2F4F5"/>
<rect x="42" y="33" width="3" height="1" fill="#D5D9DC"/>
<rect x="45" y="33" width="1" height="1" fill="#8E959A"/>
<rect x="46" y="33" width="1" height="1" fill="#2A2E31"/>
<rect x="40" y="34" width="1" height="1" fill="#2A2E31"/>
<rect x="41" y="34" width="1" height="1" fill="#F2F4F5"/>
<rect x="42" y="34" width="1" height="1" fill="#D5D9DC"/>
<rect x="43" y="34" width="1" height="1" fill="#2A2E31"/>
<rect x="44" y="34" width="1" height="1" fill="#D5D9DC"/>
<rect x="45" y="34" width="1" height="1" fill="#8E959A"/>
<rect x="46" y="34" width="1" height="1" fill="#2A2E31"/>
<rect x="40" y="35" width="1" height="1" fill="#2A2E31"/>
<rect x="41" y="35" width="1" height="1" fill="#F2F4F5"/>
<rect x="42" y="35" width="3" height="1" fill="#D5D9DC"/>
<rect x="45" y="35" width="1" height="1" fill="#8E959A"/>
<rect x="46" y="35" width="1" height="1" fill="#2A2E31"/>
<rect x="40" y="36" width="1" height="1" fill="#2A2E31"/>
<rect x="41" y="36" width="5" height="1" fill="#8E959A"/>
<rect x="46" y="36" width="1" height="1" fill="#2A2E31"/>
<rect x="40" y="37" width="7" height="1" fill="#2A2E31"/>
</g>
<path fill="#2A2E31" d="M13.95199999999999 57.519999999999996Q12.27199999999999 57.519999999999996 11.461999999999989 56.385999999999996Q10.65199999999999 55.251999999999995 10.65199999999999 53.187999999999995Q10.65199999999999 51.123999999999995 11.461999999999989 49.989999999999995Q12.27199999999999 48.855999999999995 13.95199999999999 48.855999999999995Q14.59999999999999 48.855999999999995 15.09799999999999 49.029999999999994Q15.59599999999999 49.20399999999999 15.955999999999989 49.51599999999999Q16.31599999999999 49.827999999999996 16.54999999999999 50.27199999999999Q16.783999999999992 50.715999999999994 16.91599999999999 51.268L15.23599999999999 51.675999999999995Q15.16399999999999 51.376 15.06799999999999 51.123999999999995Q14.97199999999999 50.872 14.82199999999999 50.692Q14.67199999999999 50.512 14.44999999999999 50.41Q14.22799999999999 50.308 13.91599999999999 50.308Q13.18399999999999 50.308 12.87799999999999 50.878Q12.571999999999989 51.448 12.571999999999989 52.455999999999996V53.919999999999995Q12.571999999999989 54.928 12.87799999999999 55.498Q13.18399999999999 56.068 13.91599999999999 56.068Q14.539999999999988 56.068 14.821999999999989 55.684Q15.103999999999989 55.3 15.23599999999999 54.699999999999996L16.91599999999999 55.108Q16.783999999999992 55.66 16.54999999999999 56.104Q16.31599999999999 56.547999999999995 15.955999999999989 56.866Q15.59599999999999 57.184 15.09799999999999 57.352Q14.59999999999999 57.519999999999996 13.95199999999999 57.519999999999996Z M18.94399999999999 57.376V49.0H20.75599999999999V55.9H24.355999999999987V57.376Z M30.739999999999988 57.376 30.21199999999999 55.36H27.919999999999987L27.40399999999999 57.376H25.579999999999988L27.84799999999999 49.0H30.39199999999999L32.65999999999999 57.376ZM29.11999999999999 50.739999999999995H29.02399999999999L28.207999999999988 53.908H29.93599999999999Z M37.69999999999999 50.476V57.376H35.89999999999999V50.476H33.487999999999985V49.0H40.11199999999999V50.476Z M45.37999999999999 50.476V57.376H43.57999999999999V50.476H41.167999999999985V49.0H47.79199999999999V50.476Z M51.25999999999999 57.376V54.412L48.60799999999999 49.0H50.61199999999999L51.499999999999986 50.943999999999996L52.14799999999999 52.587999999999994H52.243999999999986L52.89199999999999 50.943999999999996L53.77999999999999 49.0H55.71199999999999L53.05999999999999 54.412V57.376Z M64.56799999999998 57.376 64.05199999999999 49.0H65.6L65.83999999999999 54.016L65.91199999999999 55.599999999999994H66.01999999999998L66.73999999999998 50.824H68.35999999999999L69.07999999999998 55.599999999999994H69.18799999999999L69.25999999999999 54.064L69.49999999999999 49.0H70.98799999999999L70.472 57.376H68.192L67.57999999999998 52.756H67.46L66.84799999999998 57.376Z M75.19999999999999 57.519999999999996Q73.52 57.519999999999996 72.722 56.379999999999995Q71.92399999999999 55.239999999999995 71.92399999999999 53.187999999999995Q71.92399999999999 51.135999999999996 72.722 49.995999999999995Q73.52 48.855999999999995 75.19999999999999 48.855999999999995Q76.88 48.855999999999995 77.678 49.995999999999995Q78.476 51.135999999999996 78.476 53.187999999999995Q78.476 55.239999999999995 77.678 56.379999999999995Q76.88 57.519999999999996 75.19999999999999 57.519999999999996ZM75.19999999999999 56.068Q75.96799999999999 56.068 76.262 55.498Q76.556 54.928 76.556 53.908V52.455999999999996Q76.556 51.448 76.262 50.878Q75.96799999999999 50.308 75.19999999999999 50.308Q74.43199999999999 50.308 74.13799999999999 50.878Q73.844 51.448 73.844 52.455999999999996V53.919999999999995Q73.844 54.928 74.13799999999999 55.498Q74.43199999999999 56.068 75.19999999999999 56.068Z M81.968 57.376H80.19200000000001V49.0H83.432Q84.044 49.0 84.524 49.186Q85.004 49.372 85.334 49.72Q85.664 50.068 85.832 50.56Q86.0 51.052 86.0 51.664Q86.0 52.552 85.616 53.188Q85.232 53.824 84.524 54.028L86.168 57.376H84.2L82.796 54.268H81.968ZM83.0 52.876Q83.636 52.876 83.882 52.635999999999996Q84.128 52.396 84.128 51.843999999999994V51.483999999999995Q84.128 50.931999999999995 83.882 50.69199999999999Q83.636 50.452 83.0 50.452H81.968V52.876Z M90.32000000000001 53.884 89.57600000000001 54.928V57.376H87.77600000000001V49.0H89.57600000000001V52.504H89.67200000000001L90.584 51.111999999999995L92.06 49.0H94.07600000000001L91.56800000000001 52.54L94.19600000000001 57.376H92.168Z M98.10800000000002 57.519999999999996Q97.05200000000002 57.519999999999996 96.27200000000002 57.172Q95.49200000000002 56.824 95.01200000000001 56.224L96.05600000000001 55.071999999999996Q96.51200000000001 55.576 97.05800000000002 55.816Q97.60400000000001 56.056 98.16800000000002 56.056Q98.81600000000002 56.056 99.15200000000002 55.768Q99.48800000000001 55.48 99.48800000000001 54.94Q99.48800000000001 54.495999999999995 99.23000000000002 54.268Q98.97200000000001 54.04 98.36000000000001 53.943999999999996L97.48400000000001 53.8Q96.35600000000001 53.608 95.852 52.965999999999994Q95.34800000000001 52.324 95.34800000000001 51.4Q95.34800000000001 50.187999999999995 96.14000000000001 49.52199999999999Q96.93200000000002 48.855999999999995 98.36000000000001 48.855999999999995Q99.33200000000002 48.855999999999995 100.05200000000002 49.15599999999999Q100.77200000000002 49.455999999999996 101.21600000000001 49.971999999999994L100.19600000000001 51.111999999999995Q99.86000000000001 50.739999999999995 99.40400000000001 50.53Q98.94800000000001 50.32 98.37200000000001 50.32Q97.16000000000001 50.32 97.16000000000001 51.315999999999995Q97.16000000000001 51.748 97.43 51.964Q97.70000000000002 52.18 98.31200000000001 52.288L99.18800000000002 52.443999999999996Q100.20800000000001 52.623999999999995 100.76000000000002 53.211999999999996Q101.31200000000001 53.8 101.31200000000001 54.796Q101.31200000000001 55.384 101.108 55.882Q100.90400000000001 56.379999999999995 100.49600000000001 56.745999999999995Q100.08800000000002 57.111999999999995 99.49400000000003 57.315999999999995Q98.90000000000002 57.519999999999996 98.10800000000002 57.519999999999996Z"/>
</svg>
